<svg width="608" height="455" viewBox="0 0 608 455" fill="none" xmlns="http://www.w3.org/2000/svg">
<path d="M608 399.128H0V399.432H608V399.128Z" fill="#EBEBEB"/>
<path d="M547.08 418.701H506.803V419.005H547.08V418.701Z" fill="#EBEBEB"/>
<path d="M402.764 422.001H392.193V422.305H402.764V422.001Z" fill="#EBEBEB"/>
<path d="M505.586 407.409H482.249V407.713H505.586V407.409Z" fill="#EBEBEB"/>
<path d="M116.313 409.452H63.7902V409.756H116.313V409.452Z" fill="#EBEBEB"/>
<path d="M134.841 409.452H127.14V409.756H134.841V409.452Z" fill="#EBEBEB"/>
<path d="M273.779 414.587H159.869V414.891H273.779V414.587Z" fill="#EBEBEB"/>
<path d="M288.209 344.897H53.4006C49.5739 344.897 46.4597 341.783 46.4597 337.956V7.89465C46.4597 4.0679 49.5739 0.95372 53.4006 0.95372H288.209C292.035 0.95372 295.149 4.0679 295.149 7.89465V337.956C295.149 341.783 292.035 344.897 288.209 344.897ZM53.4006 1.25894C49.7405 1.25894 46.7637 4.2357 46.7637 7.89586V337.957C46.7637 341.617 49.7405 344.594 53.4006 344.594H288.209C291.868 344.594 294.845 341.617 294.845 337.957V7.89465C294.845 4.2357 291.868 1.25772 288.209 1.25772L53.4006 1.25894Z" fill="#EBEBEB"/>
<path d="M551.225 344.897H316.418C312.591 344.897 309.478 341.783 309.478 337.956V7.89465C309.478 4.0679 312.592 0.95372 316.418 0.95372H551.225C555.053 0.95372 558.166 4.0679 558.166 7.89465V337.956C558.167 341.783 555.053 344.897 551.225 344.897ZM316.418 1.25894C312.759 1.25894 309.782 4.2357 309.782 7.89586V337.957C309.782 341.617 312.759 344.594 316.418 344.594H551.225C554.885 344.594 557.862 341.617 557.862 337.957V7.89465C557.862 4.2357 554.885 1.25772 551.225 1.25772L316.418 1.25894Z" fill="#EBEBEB"/>
<path d="M389.85 41.877H83.9283V217.139H389.85V41.877Z" fill="#E6E6E6"/>
<path d="M394.399 41.877H86.0539V217.139H394.399V41.877Z" fill="#F0F0F0"/>
<path d="M388.029 209.984L388.029 49.0322L92.4235 49.0322L92.4235 209.984L388.029 209.984Z" fill="#FAFAFA"/>
<path d="M128.705 209.984L166.091 49.0319H215.1L177.714 209.984H128.705Z" fill="white"/>
<path d="M185.644 209.984L223.03 49.0319H245.163L207.777 209.984H185.644Z" fill="white"/>
<path d="M273.466 209.984L310.852 49.0319H348.653L311.267 209.984H273.466Z" fill="white"/>
<path d="M388.029 209.985L388.029 49.0325H387.221L387.221 209.985H388.029Z" fill="#E6E6E6"/>
<path d="M249.416 41.877H231.039V217.139H249.416V41.877Z" fill="#F0F0F0"/>
<path d="M231.038 209.984L231.038 49.032H230.229L230.229 209.984H231.038Z" fill="#E6E6E6"/>
<path d="M240.547 41.877H239.907V217.139H240.547V41.877Z" fill="#E6E6E6"/>
<path d="M279.477 285.695H253.54V399.128H279.477V285.695Z" fill="#E6E6E6"/>
<path d="M268.245 399.128H279.477V380.306H256.468L268.245 399.128Z" fill="#F5F5F5"/>
<path d="M78.2545 285.695H52.3172V399.128H78.2545V285.695Z" fill="#E6E6E6"/>
<path d="M279.478 285.695H68.4523V392.649H279.478V285.695Z" fill="#F5F5F5"/>
<path d="M79.6845 399.128H68.4523V380.306H91.4615L79.6845 399.128Z" fill="#F5F5F5"/>
<path d="M270.763 294.693H77.1649V334.143H270.763V294.693Z" fill="#F0F0F0"/>
<path d="M173.966 325.939C167.612 325.939 162.444 320.771 162.444 314.418C162.444 308.065 167.612 302.896 173.966 302.896C180.319 302.896 185.487 308.064 185.487 314.418C185.486 320.771 180.318 325.939 173.966 325.939ZM173.966 304.113C168.283 304.113 163.66 308.737 163.66 314.419C163.66 320.101 168.283 324.725 173.966 324.725C179.648 324.725 184.271 320.101 184.271 314.419C184.27 308.737 179.647 304.113 173.966 304.113Z" fill="white"/>
<path d="M270.763 343.671H77.1649V383.121H270.763V343.671Z" fill="#F0F0F0"/>
<path d="M173.966 374.917C167.612 374.917 162.443 369.748 162.443 363.396C162.443 357.042 167.612 351.874 173.966 351.874C180.319 351.874 185.487 357.042 185.487 363.396C185.486 369.749 180.318 374.917 173.966 374.917ZM173.966 353.09C168.282 353.09 163.659 357.714 163.659 363.396C163.659 369.078 168.282 373.701 173.966 373.701C179.648 373.701 184.271 369.078 184.271 363.396C184.271 357.714 179.647 353.09 173.966 353.09Z" fill="white"/>
<path d="M305.751 399.125H391.938V315.084H305.751V399.125Z" fill="#E6E6E6"/>
<path d="M505.214 315.085H391.939V399.126H505.214V315.085Z" fill="#F0F0F0"/>
<path opacity="0.7" d="M305.752 321.866H505.213V307.927H305.752V321.866Z" fill="#E6E6E6"/>
<path d="M301.405 315.085H391.938V307.038H301.405V315.085Z" fill="#E6E6E6"/>
<path d="M509.561 307.039H391.939V315.085H509.561V307.039Z" fill="#F0F0F0"/>
<path d="M543.038 381.588C550.06 366.428 543.463 348.446 528.302 341.423C513.142 334.401 495.16 340.999 488.137 356.159C481.115 371.319 487.713 389.302 502.873 396.324C518.033 403.346 536.016 396.749 543.038 381.588Z" fill="#E6E6E6"/>
<path opacity="0.7" d="M508.707 346.575C506.156 347.048 503.901 346.418 503.67 345.17C503.439 343.923 505.32 342.528 507.87 342.055C510.421 341.583 512.677 342.212 512.908 343.46C513.139 344.708 511.259 346.103 508.707 346.575Z" fill="#E6E6E6"/>
<path opacity="0.7" d="M497.047 353.927C495.234 355.783 493.027 356.567 492.12 355.68C491.212 354.793 491.946 352.57 493.76 350.714C495.573 348.859 497.779 348.074 498.688 348.961C499.595 349.848 498.86 352.072 497.047 353.927Z" fill="#E6E6E6"/>
<path opacity="0.7" d="M507.276 357.597C505.209 359.165 502.754 359.409 501.792 358.14C500.83 356.872 501.725 354.573 503.792 353.005C505.86 351.436 508.315 351.193 509.277 352.462C510.238 353.73 509.343 356.029 507.276 357.597Z" fill="#E6E6E6"/>
<path d="M523.447 62.701H436.3V196.315H523.447V62.701Z" fill="#E6E6E6"/>
<path d="M530.829 62.701H438.327V196.315H530.829V62.701Z" fill="#F5F5F5"/>
<path d="M524.931 190.417V68.5995L444.225 68.5995V190.417H524.931Z" fill="white"/>
<path d="M510.726 132.927V126.091L458.43 126.091V132.927H510.726Z" fill="#F5F5F5"/>
<path d="M510.725 115.693V108.856L458.43 108.856V115.693L510.725 115.693Z" fill="#F5F5F5"/>
<path d="M510.725 98.4579V91.6216L458.43 91.6216V98.4579L510.725 98.4579Z" fill="#F5F5F5"/>
<path d="M510.726 150.162V143.325H458.431V150.162H510.726Z" fill="#F5F5F5"/>
<path d="M510.725 167.396V160.56H458.43V167.396H510.725Z" fill="#F5F5F5"/>
<path d="M304 454.046C434.212 454.046 539.769 447.882 539.769 440.278C539.769 432.673 434.212 426.509 304 426.509C173.788 426.509 68.231 432.673 68.231 440.278C68.231 447.882 173.788 454.046 304 454.046Z" fill="#F5F5F5"/>
<path d="M257.49 429.7L266.709 427.159L263.279 405.136L254.06 407.677L257.49 429.7Z" fill="#FFC3BD"/>
<path d="M179.067 429.937H188.628L191.009 407.793H181.448L179.067 429.937Z" fill="#FFC3BD"/>
<path d="M189.415 428.83H177.757C177.367 428.83 177.028 429.101 176.944 429.483L175.055 437.983C174.86 438.865 175.553 439.699 176.455 439.683C180.205 439.618 182.942 439.398 187.667 439.398C190.573 439.398 199.338 439.7 203.351 439.7C207.276 439.7 207.889 435.731 206.245 435.372C198.877 433.761 193.326 431.538 190.967 429.417C190.541 429.036 189.987 428.83 189.415 428.83Z" fill="#263238"/>
<path d="M266.35 426.11L256.283 428.885C255.906 428.988 255.652 429.341 255.671 429.731L256.109 438.427C256.154 439.328 257.021 439.955 257.887 439.701C261.501 438.638 266.691 436.98 271.254 435.721C276.591 434.25 281.28 433.271 287.539 431.547C291.323 430.503 291.32 426.388 289.64 426.478C281.994 426.888 276.059 428.342 268.769 426.217C267.976 425.985 267.145 425.891 266.35 426.11Z" fill="#263238"/>
<path d="M231.383 130.565C231.753 131.015 232.299 131.659 232.785 132.212L234.307 133.944C235.337 135.096 236.399 136.226 237.48 137.329C239.659 139.521 241.869 141.664 244.181 143.61C248.75 147.518 253.748 150.856 258.554 152.357C259.155 152.568 259.736 152.676 260.326 152.832L261.19 152.977C261.705 153.049 261.185 153.018 261.155 153.067C261.007 153.122 261.261 153.136 261.644 152.999C262.029 152.881 262.534 152.668 263.067 152.39C264.143 151.829 265.332 151.036 266.508 150.162C267.702 149.301 268.903 148.34 270.091 147.332C274.842 143.29 279.571 138.65 284.154 134.08L289.922 138.356C286.465 144.369 282.641 149.953 277.979 155.305C275.604 157.97 273.138 160.568 269.7 162.982C268.825 163.584 267.871 164.179 266.733 164.726C265.596 165.257 264.247 165.778 262.444 166.015C261.586 166.14 260.233 166.082 259.925 166.034L258.312 165.888C257.27 165.725 256.206 165.578 255.209 165.327C253.174 164.88 251.255 164.242 249.437 163.488C247.6 162.752 245.884 161.886 244.214 160.978C240.882 159.153 237.876 157.012 235.026 154.77C232.201 152.497 229.535 150.107 227.054 147.557C225.812 146.285 224.6 144.988 223.417 143.659C222.828 142.991 222.234 142.327 221.667 141.629C221.08 140.915 220.567 140.277 219.91 139.42L231.383 130.565Z" fill="#FFC3BD"/>
<path d="M234.721 159.78L238.445 163.518L255.563 149.801L249.438 145.046L234.721 159.78Z" fill="#263238"/>
<path d="M214.662 134.683C213.953 143.798 234.479 162.397 234.479 162.397L252.622 146.661C252.622 146.661 244.98 138.571 236.4 130.432C230.498 124.834 215.429 124.824 214.662 134.683Z" fill="#263238"/>
<path opacity="0.5" d="M214.662 134.683C213.953 143.798 234.479 162.397 234.479 162.397L252.622 146.661C252.622 146.661 244.98 138.571 236.4 130.432C230.498 124.834 215.429 124.824 214.662 134.683Z" fill="#407BFF"/>
<path opacity="0.2" d="M240.761 156.952C240.578 156.101 240.347 155.25 240.092 154.411C237.733 146.92 232.346 140.135 223.907 139.369C220.101 139.028 218.982 141.703 219.274 145.631C225.135 153.936 234.474 162.398 234.474 162.398L236.006 161.073L238.45 163.517L241.381 161.17C241.284 159.785 241.077 158.363 240.761 156.952Z" fill="black"/>
<path d="M283.407 137.349L286.138 129.326L296.881 132.081C296.881 132.081 293.467 136.147 289.604 139.04L283.407 137.349Z" fill="#FFC3BD"/>
<path d="M290.398 125.869L299.292 128.962L296.882 132.08L286.138 129.326L290.398 125.869Z" fill="#FFC3BD"/>
<path opacity="0.2" d="M263.277 405.142L265.047 416.494L255.825 419.035L254.055 407.684L263.277 405.142Z" fill="black"/>
<path opacity="0.2" d="M181.444 407.799H191.01L189.779 419.214H180.212L181.444 407.799Z" fill="black"/>
<path d="M175.802 130.273C178.751 140.839 180.636 151.599 181.878 161.726C182.782 169.136 183.327 176.206 183.662 182.619C184.457 197.649 184.127 209.109 184.573 212.991C192.05 212.473 220.227 210.513 235.59 209.438C242.539 155.046 229.271 127.023 229.271 127.023C229.271 127.023 223.622 125.897 217.058 125.512C216.194 125.456 215.315 125.426 214.422 125.409C208.644 125.286 199.225 126.153 192.731 126.919C191.366 127.081 189.985 127.282 188.643 127.498C181.814 128.608 175.802 130.273 175.802 130.273Z" fill="#263238"/>
<path opacity="0.5" d="M175.802 130.273C178.751 140.839 180.636 151.599 181.878 161.726C182.782 169.136 183.327 176.206 183.662 182.619C184.457 197.649 184.127 209.109 184.573 212.991C192.05 212.473 220.227 210.513 235.59 209.438C242.539 155.046 229.271 127.023 229.271 127.023C229.271 127.023 223.622 125.897 217.058 125.512C216.194 125.456 215.315 125.426 214.422 125.409C208.644 125.286 199.225 126.153 192.731 126.919C191.366 127.081 189.985 127.282 188.643 127.498C181.814 128.608 175.802 130.273 175.802 130.273Z" fill="#407BFF"/>
<path d="M224.149 158.397L213.01 159.142C212.672 159.165 212.349 158.911 212.289 158.575L212.196 158.048C212.109 157.562 211.513 157.308 211.154 157.605L205.159 162.547C204.838 162.812 204.931 163.343 205.339 163.56L212.929 167.592C213.384 167.834 213.877 167.507 213.791 167.022L213.697 166.494C213.638 166.158 213.864 165.868 214.202 165.845L225.341 165.099C225.679 165.076 225.905 164.785 225.845 164.45L224.87 158.962C224.81 158.629 224.487 158.375 224.149 158.397Z" fill="white"/>
<path d="M204.275 155.639L215.413 154.893C215.751 154.87 216.075 155.124 216.134 155.461L216.228 155.989C216.314 156.474 216.91 156.728 217.27 156.431L223.265 151.49C223.586 151.225 223.492 150.693 223.085 150.477L215.495 146.444C215.04 146.203 214.546 146.53 214.633 147.015L214.726 147.543C214.786 147.878 214.56 148.169 214.222 148.192L203.083 148.937C202.745 148.96 202.519 149.251 202.578 149.587L203.554 155.074C203.613 155.406 203.937 155.661 204.275 155.639Z" fill="white"/>
<path d="M192.73 126.917C199.223 126.151 208.647 125.287 214.423 125.409C215.311 125.421 216.199 125.458 217.062 125.506C217.159 125.506 217.269 125.518 217.366 125.531C218.91 128.729 220.916 138.246 213.802 139.231C204.147 140.569 193.228 132.231 188.644 127.5C189.982 127.282 191.368 127.075 192.73 126.917Z" fill="#263238"/>
<path opacity="0.2" d="M188.684 144.034C188.712 152.584 186.353 159.81 182.368 166.142C182.226 164.687 182.057 163.217 181.877 161.731C181.196 156.164 180.318 150.4 179.154 144.578L188.684 144.034Z" fill="black"/>
<path d="M193.18 102.347C195.034 109.23 197.292 121.921 192.736 126.918C196.573 130.354 202.093 133.121 209.921 132.403C215.915 131.855 215.924 127.637 214.423 125.405C206.512 124.09 206.31 118.303 207.287 112.786L193.18 102.347Z" fill="#FFC3BD"/>
<path opacity="0.2" d="M198.932 106.607L207.281 112.781C207.045 114.087 206.883 115.406 206.881 116.677C203.878 116.454 199.566 113.476 199.034 110.385C198.767 108.845 198.728 107.348 198.932 106.607Z" fill="black"/>
<path d="M228.282 65.9805C231.813 73.42 217.915 91.4776 206.573 89.5418C201.053 88.5994 193.691 86.6343 187.585 84.865C182.069 83.2672 180.051 75.9943 185.288 75.0726C203.042 71.945 222.417 53.626 228.282 65.9805Z" fill="#263238"/>
<path d="M191.617 91.9032C192.858 101.311 193.104 106.882 198.215 111.398C205.903 118.192 217.264 113.051 218.861 103.461C220.298 94.8302 218.029 80.8936 208.517 77.7794C199.146 74.7114 190.377 82.495 191.617 91.9032Z" fill="#FFC3BD"/>
<path d="M209.928 103.936H209.923C206.023 104.184 204.067 101.623 203.985 101.513C203.905 101.405 203.927 101.253 204.035 101.173C204.143 101.093 204.295 101.114 204.376 101.221C204.394 101.246 206.265 103.679 209.891 103.448C210.025 103.439 210.142 103.542 210.15 103.675C210.159 103.81 210.06 103.925 209.928 103.936Z" fill="#263238"/>
<path d="M198.229 96.1641C201.795 88.3999 202.56 80.4643 196.05 78.0372C189.539 75.6088 184.055 78.8629 182.239 83.7633C180.424 88.6638 193.031 107.477 198.229 96.1641Z" fill="#263238"/>
<path d="M190.828 81.363C197.369 86.0494 219.797 86.3279 216.632 77.9132C214.262 71.6118 198.687 71.8064 190.828 81.363Z" fill="#263238"/>
<path d="M188.076 102.617C189.568 104.697 191.881 105.892 193.962 106.2C197.09 106.662 198.26 103.768 197.06 101.022C195.979 98.5499 193.05 95.3311 190.068 96.1264C187.13 96.9083 186.37 100.24 188.076 102.617Z" fill="#FFC3BD"/>
<path d="M267.915 413.412L252.304 417.707C252.304 417.707 232.757 356.084 227.953 322.24C226.678 313.266 224.713 300.648 221.713 287.199C217.925 270.254 213.175 251.931 209.285 237.582C205.181 222.471 202.055 211.775 202.055 211.775L235.596 209.437C235.596 209.437 253.745 288.591 255.669 317.711C257.675 347.99 267.915 413.412 267.915 413.412Z" fill="#407BFF"/>
<path opacity="0.3" d="M267.915 413.412L252.304 417.707C252.304 417.707 232.757 356.084 227.953 322.24C226.678 313.266 224.713 300.648 221.713 287.199C217.925 270.254 213.175 251.931 209.285 237.582C205.181 222.471 202.055 211.775 202.055 211.775L235.596 209.437C235.596 209.437 253.745 288.591 255.669 317.711C257.675 347.99 267.915 413.412 267.915 413.412Z" fill="#FAFAFA"/>
<path opacity="0.2" d="M221.713 287.199C217.925 270.254 213.175 251.931 209.285 237.582L212.766 230.087C221.086 239.973 223.323 270.575 221.713 287.199Z" fill="black"/>
<path d="M217.501 210.699C217.501 210.699 213.881 292.563 209.845 320.287C205.425 350.649 194.198 417.003 194.198 417.003H176.685C176.685 417.003 176.392 354.087 181.877 324.681C188.125 291.184 184.58 212.997 184.58 212.997L217.501 210.699Z" fill="#407BFF"/>
<path opacity="0.3" d="M217.501 210.699C217.501 210.699 213.881 292.563 209.845 320.287C205.425 350.649 194.198 417.003 194.198 417.003H176.685C176.685 417.003 176.392 354.087 181.877 324.681C188.125 291.184 184.58 212.997 184.58 212.997L217.501 210.699Z" fill="#FAFAFA"/>
<path d="M196.294 417.381H175.671V411.221L198.724 410.82L196.294 417.381Z" fill="#407BFF"/>
<path d="M268.994 413.506L251.374 418.363L248.835 412.29L268.921 406.722L268.994 413.506Z" fill="#407BFF"/>
<path d="M206.134 93.5448C206.187 94.3146 206.639 94.9092 207.142 94.8739C207.645 94.8387 208.009 94.1869 207.955 93.4172C207.902 92.6474 207.451 92.0528 206.947 92.0881C206.444 92.1233 206.08 92.7751 206.134 93.5448Z" fill="#263238"/>
<path d="M214.829 92.9381C214.883 93.7078 215.334 94.3024 215.838 94.2671C216.341 94.2319 216.705 93.5801 216.651 92.8104C216.598 92.0407 216.146 91.446 215.643 91.4813C215.141 91.5166 214.776 92.1683 214.829 92.9381Z" fill="#263238"/>
<path d="M212.092 93.5132C212.092 93.5132 214.151 97.83 216.227 99.8364C214.955 101.202 212.481 100.596 212.481 100.596L212.092 93.5132Z" fill="#ED847E"/>
<path d="M203.236 90.9219C203.4 90.9402 203.569 90.8672 203.664 90.7189C204.767 89.0262 206.437 89.0079 206.454 89.0079C206.704 89.0079 206.907 88.8049 206.907 88.5556C206.907 88.3063 206.715 88.0996 206.454 88.102C206.365 88.102 204.273 88.1251 202.905 90.2239C202.768 90.4331 202.828 90.714 203.037 90.8502C203.101 90.8903 203.168 90.9134 203.236 90.9219Z" fill="#263238"/>
<path d="M218.349 89.6828C218.44 89.6925 218.536 89.6743 218.622 89.6245C218.84 89.4992 218.914 89.2232 218.789 89.0067C217.54 86.8349 215.456 86.6902 215.365 86.689C215.115 86.6757 214.901 86.8666 214.887 87.1158C214.873 87.3651 215.075 87.5804 215.311 87.5937C215.382 87.6035 217.004 87.7214 218.003 89.4579C218.08 89.5892 218.21 89.6682 218.349 89.6828Z" fill="#263238"/>
<path d="M192.577 430.501C193.304 430.501 193.985 430.377 194.419 430.013C194.761 429.725 194.919 429.323 194.887 428.817C194.863 428.44 194.663 428.261 194.499 428.177C193.438 427.631 190.357 429.529 190.008 429.747C189.931 429.796 189.891 429.886 189.905 429.976C189.92 430.066 189.987 430.137 190.075 430.159C190.738 430.317 191.693 430.501 192.577 430.501ZM193.997 428.521C194.116 428.521 194.215 428.539 194.291 428.578C194.352 428.61 194.424 428.668 194.435 428.845C194.458 429.205 194.357 429.475 194.127 429.667C193.604 430.106 192.357 430.165 190.732 429.839C191.811 429.214 193.264 428.521 193.997 428.521Z" fill="#407BFF"/>
<path d="M190.128 430.164C190.165 430.164 190.202 430.156 190.236 430.137C191.226 429.6 193.138 427.505 192.937 426.438C192.9 426.245 192.758 425.91 192.216 425.845C191.867 425.803 191.541 425.9 191.25 426.137C190.14 427.045 189.911 429.804 189.901 429.921C189.895 430.005 189.934 430.084 190.004 430.129C190.043 430.151 190.085 430.164 190.128 430.164ZM192.059 426.287C192.093 426.287 192.127 426.29 192.161 426.294C192.455 426.33 192.481 426.465 192.492 426.522C192.611 427.151 191.392 428.735 190.409 429.482C190.52 428.676 190.824 427.067 191.537 426.486C191.7 426.353 191.871 426.287 192.059 426.287Z" fill="#407BFF"/>
<path d="M267.599 427.133C267.612 427.134 267.626 427.135 267.639 427.134C269.207 427.021 271.949 426.653 272.711 425.481C272.941 425.127 272.981 424.732 272.828 424.307C272.737 424.052 272.557 423.886 272.307 423.825C271.027 423.525 267.829 426.41 267.47 426.742C267.4 426.808 267.378 426.91 267.415 426.999C267.448 427.074 267.519 427.124 267.599 427.133ZM272.136 424.254C272.158 424.257 272.18 424.26 272.199 424.265C272.301 424.29 272.361 424.348 272.401 424.461C272.506 424.75 272.483 425.003 272.332 425.236C271.904 425.893 270.41 426.401 268.281 426.623C269.567 425.51 271.391 424.173 272.136 424.254Z" fill="#407BFF"/>
<path d="M267.599 427.133C267.659 427.139 267.721 427.122 267.768 427.081C268.743 426.275 270.398 423.674 269.942 422.678C269.835 422.445 269.574 422.188 268.961 422.292C268.503 422.369 268.13 422.608 267.853 422.999C266.946 424.286 267.383 426.837 267.402 426.945C267.415 427.024 267.47 427.091 267.547 427.119C267.563 427.126 267.58 427.13 267.599 427.133ZM269.297 422.726C269.473 422.745 269.513 422.833 269.529 422.868C269.802 423.465 268.736 425.445 267.789 426.441C267.707 425.682 267.627 424.107 268.222 423.262C268.428 422.968 268.695 422.797 269.034 422.739C269.146 422.721 269.231 422.718 269.297 422.726Z" fill="#407BFF"/>
<path d="M175.622 209.898C175.448 207.776 174.034 206.127 172.212 205.921L143.756 202.71C141.596 202.467 139.615 204.315 139.331 206.84L130.99 280.749C130.705 283.274 132.224 285.517 134.384 285.762L224.686 295.952C226.845 296.195 228.827 294.347 229.111 291.822L236.117 229.74C236.401 227.216 234.883 224.973 232.723 224.728L183.584 219.183C179.332 218.704 176.029 214.853 175.622 209.898Z" fill="#263238"/>
<path d="M187.635 226.102C187.781 224.249 186.594 222.791 184.772 222.586L156.316 219.374C154.157 219.131 151.859 220.714 151.184 222.911L133.186 281.509C132.511 283.707 133.714 285.686 135.873 285.929L226.176 296.12C228.334 296.363 230.633 294.779 231.308 292.582L246.143 244.28C246.818 242.083 245.615 240.103 243.455 239.86L194.317 234.315C190.064 233.836 187.292 230.429 187.635 226.102Z" fill="#407BFF"/>
<path d="M186.105 144.289L183.42 148.123C182.512 149.436 181.622 150.767 180.75 152.11C178.99 154.784 177.3 157.495 175.652 160.214C174.04 162.949 172.508 165.705 171.071 168.475C169.704 171.261 168.397 174.05 167.353 176.842L167.258 177.084L167.226 177.187C167.202 177.257 167.173 177.324 167.14 177.393C167.098 177.614 167.033 177.803 166.987 178.06C166.897 178.578 166.832 179.182 166.78 179.836C166.683 181.145 166.699 182.618 166.784 184.123C166.96 187.139 167.296 190.318 167.768 193.499C168.69 199.866 169.882 206.413 171.117 212.839L164.303 215.105C161.437 208.825 159.036 202.495 157.091 195.82C156.154 192.476 155.266 189.082 154.698 185.462C154.409 183.652 154.178 181.789 154.102 179.76C154.062 178.744 154.082 177.68 154.175 176.538C154.223 175.967 154.323 175.335 154.411 174.734L154.639 173.725L154.76 173.223L154.864 172.872C156.882 165.747 159.837 159.281 163.168 153.122C164.839 150.047 166.628 147.059 168.511 144.138C169.461 142.682 170.428 141.241 171.423 139.811C172.42 138.354 173.41 137.013 174.576 135.509L186.105 144.289Z" fill="#FFC3BD"/>
<path d="M160.872 152.877L157.798 157.167L174.147 171.792L177.829 164.969L160.872 152.877Z" fill="#263238"/>
<path d="M175.802 130.273C166.84 132.081 158.979 154.001 158.979 154.001L177.682 169.236C177.682 169.236 183.811 158.094 188.713 147.343C194.053 135.633 186.657 128.083 175.802 130.273Z" fill="#263238"/>
<path opacity="0.5" d="M175.802 130.273C166.84 132.081 158.979 154.001 158.979 154.001L177.682 169.236C177.682 169.236 183.811 158.094 188.713 147.343C194.053 135.633 186.657 128.083 175.802 130.273Z" fill="#407BFF"/>
<path d="M170.107 210.965L176.558 218.219L164.877 221.79C164.877 221.79 160.756 214.396 164.43 211.775L170.107 210.965Z" fill="#FFC3BD"/>
<path d="M177.112 226.186L167.319 228.686L164.877 221.789L176.558 218.218L177.112 226.186Z" fill="#FFC3BD"/>
<path d="M396.158 96.1398C395.511 94.1115 393.763 92.8225 391.942 93.0317L363.492 96.2979C361.333 96.5459 359.818 98.7919 360.107 101.316L368.59 175.209C368.88 177.733 370.865 179.578 373.024 179.33L463.307 168.966C465.465 168.718 466.98 166.472 466.691 163.948L459.565 101.881C459.276 99.3561 457.29 97.5114 455.132 97.7595L406.004 103.399C401.752 103.887 397.668 100.877 396.158 96.1398Z" fill="#263238"/>
<path d="M409.842 69.2102C416.064 96.4012 420.122 124.384 421.855 152.886C399.424 155.556 376.983 157.652 354.554 159.175C352.822 127.894 347.878 97.3959 340.032 68.1414C355.876 63.8781 371.664 59.3132 387.391 54.4456C394.943 59.1284 402.43 64.0495 409.842 69.2102Z" fill="#407BFF"/>
<path opacity="0.7" d="M409.842 69.2102C416.064 96.4012 420.122 124.384 421.855 152.886C399.424 155.556 376.983 157.652 354.554 159.175C352.822 127.894 347.878 97.3959 340.032 68.1414C355.876 63.8781 371.664 59.3132 387.391 54.4456C394.943 59.1284 402.43 64.0495 409.842 69.2102Z" fill="#FAFAFA"/>
<path d="M406.01 83.2988C388.474 87.6983 370.885 91.7306 353.252 95.3956C352.493 95.5524 351.747 95.0442 351.591 94.2696C351.434 93.495 351.924 92.7252 352.681 92.5647C370.291 88.7915 387.857 84.6534 405.363 80.1494C406.116 79.956 406.881 80.5069 407.06 81.3751C407.237 82.2433 406.764 83.1103 406.01 83.2988Z" fill="#407BFF"/>
<path d="M407.905 93.18C390.287 97.2451 372.622 100.944 354.921 104.276C354.16 104.416 353.423 103.895 353.282 103.114C353.141 102.338 353.644 101.577 354.406 101.426C372.086 97.9857 389.728 94.1796 407.319 90.0075C408.075 89.8263 408.829 90.393 408.991 91.2697C409.152 92.1428 408.662 93.0074 407.905 93.18Z" fill="#407BFF"/>
<path d="M409.606 103.123C391.913 106.854 374.179 110.221 356.417 113.217C355.653 113.35 354.927 112.806 354.801 112.02C354.674 111.236 355.194 110.481 355.957 110.348C373.701 107.243 391.413 103.771 409.083 99.9337C409.843 99.7696 410.586 100.351 410.73 101.231C410.874 102.108 410.367 102.965 409.606 103.123Z" fill="#407BFF"/>
<path d="M411.115 113.129C393.353 116.524 375.557 119.554 357.739 122.214C356.973 122.328 356.256 121.771 356.146 120.981C356.035 120.191 356.569 119.448 357.334 119.326C375.135 116.558 392.911 113.422 410.653 109.917C411.415 109.763 412.147 110.363 412.275 111.251C412.401 112.137 411.879 112.979 411.115 113.129Z" fill="#407BFF"/>
<path d="M391.156 126.664C380.405 128.332 369.647 129.864 358.883 131.265C358.114 131.367 357.41 130.792 357.315 129.998C357.221 129.2 357.769 128.466 358.536 128.361C369.291 126.895 380.04 125.296 390.78 123.564C391.547 123.44 392.261 124.036 392.365 124.892C392.469 125.742 391.923 126.54 391.156 126.664Z" fill="#407BFF"/>
<path d="M409.842 69.2102C403.989 70.8579 398.129 72.4655 392.262 74.0317C390.769 67.4531 389.144 60.9232 387.391 54.4456C394.943 59.1284 402.43 64.0495 409.842 69.2102Z" fill="#407BFF"/>
<path d="M411.505 109.23C411.232 107.391 409.747 106.237 407.927 106.447L379.476 109.713C377.317 109.961 375.434 112.021 375.271 114.313L370.902 175.457C370.738 177.75 372.355 179.408 374.513 179.16L464.797 168.796C466.955 168.548 468.837 166.488 469.001 164.196L472.602 113.795C472.766 111.502 471.149 109.844 468.99 110.092L419.863 115.732C415.611 116.22 412.144 113.524 411.505 109.23Z" fill="#407BFF"/>
<path d="M342.389 156.666C339.855 181.862 336.74 206.927 333.051 231.847C310.858 228.332 288.653 224.931 266.438 221.648C270.854 191.753 274.411 161.631 277.091 131.319C293.432 132.792 309.771 134.328 326.108 135.926C331.579 142.771 337.007 149.683 342.389 156.666Z" fill="#407BFF"/>
<path opacity="0.7" d="M342.389 156.666C339.855 181.862 336.74 206.927 333.051 231.847C310.858 228.332 288.653 224.931 266.438 221.648C270.854 191.753 274.411 161.631 277.091 131.319C293.432 132.792 309.771 134.328 326.108 135.926C331.579 142.771 337.007 149.683 342.389 156.666Z" fill="#FAFAFA"/>
<path d="M334.548 167.344C316.665 165.233 298.777 163.197 280.888 161.235C280.118 161.148 279.557 160.449 279.64 159.671C279.723 158.894 280.419 158.321 281.189 158.41C299.084 160.34 316.975 162.346 334.861 164.424C335.631 164.511 336.19 165.244 336.104 166.048C336.017 166.853 335.317 167.433 334.548 167.344Z" fill="#407BFF"/>
<path d="M333.542 176.448C315.67 174.239 297.795 172.103 279.915 170.043C279.146 169.953 278.588 169.247 278.676 168.474C278.763 167.7 279.462 167.136 280.232 167.223C298.116 169.253 315.995 171.355 333.87 173.533C334.638 173.628 335.194 174.36 335.104 175.162C335.014 175.971 334.31 176.547 333.542 176.448Z" fill="#407BFF"/>
<path d="M332.485 185.54C314.627 183.232 296.762 181 278.894 178.84C278.126 178.745 277.573 178.037 277.664 177.264C277.755 176.492 278.458 175.935 279.226 176.024C297.098 178.15 314.966 180.353 332.828 182.629C333.596 182.726 334.147 183.462 334.052 184.263C333.959 185.063 333.252 185.639 332.485 185.54Z" fill="#407BFF"/>
<path d="M331.376 194.621C313.531 192.215 295.68 189.884 277.824 187.627C277.056 187.527 276.507 186.819 276.602 186.046C276.698 185.27 277.404 184.719 278.172 184.814C296.032 187.039 313.886 189.34 331.736 191.715C332.503 191.818 333.05 192.559 332.952 193.355C332.853 194.154 332.143 194.723 331.376 194.621Z" fill="#407BFF"/>
<path d="M308.948 200.738C298.202 199.265 287.455 197.819 276.706 196.4C275.938 196.302 275.394 195.587 275.493 194.813C275.593 194.04 276.302 193.488 277.07 193.591C287.822 194.991 298.572 196.418 309.32 197.873C310.087 197.977 310.632 198.708 310.53 199.496C310.427 200.284 309.714 200.843 308.948 200.738Z" fill="#407BFF"/>
<path d="M342.389 156.666C336.372 155.993 330.354 155.326 324.336 154.668C324.963 148.428 325.554 142.182 326.108 135.925C331.579 142.771 337.007 149.683 342.389 156.666Z" fill="#407BFF"/>
</svg>
