<svg width="95" height="96" viewBox="0 0 95 96" fill="none" xmlns="http://www.w3.org/2000/svg">
<g opacity="0.4" filter="url(#filter0_f_103_234)">
<circle cx="47.7363" cy="48" r="33" fill="#EEA8FD"/>
</g>
<circle cx="47.7363" cy="43" r="33" fill="#EEA8FD"/>
<path d="M61.9141 35.5928C60.9755 32.41 58.3207 29.7553 55.138 28.8166C52.718 28.1126 51.046 28.1713 49.8873 29.0367C48.4939 30.078 48.3326 31.9554 48.3326 33.2901V36.9421C48.3326 40.5502 49.9753 42.3835 53.202 42.3835H57.4114C58.7314 42.3835 60.6235 42.2222 61.6648 40.8289C62.5595 39.6848 62.6328 38.0128 61.9141 35.5928Z" fill="white"/>
<path d="M57.8676 44.9946C57.4863 44.5546 56.9289 44.3053 56.3569 44.3053H51.1062C48.5248 44.3053 46.4274 42.2079 46.4274 39.6265V34.3758C46.4274 33.8038 46.1781 33.2464 45.7381 32.8651C45.3127 32.4837 44.726 32.3077 44.1687 32.3811C40.722 32.8211 37.5539 34.7131 35.4859 37.5585C33.4032 40.4185 32.6405 43.9093 33.3005 47.4C34.2539 52.4454 38.2873 56.4788 43.3474 57.4322C44.154 57.5935 44.9607 57.6668 45.7674 57.6668C48.4221 57.6668 50.9888 56.8455 53.1742 55.2468C56.0196 53.1788 57.9116 50.0107 58.3516 46.564C58.4249 45.992 58.2489 45.42 57.8676 44.9946Z" fill="white"/>
<defs>
<filter id="filter0_f_103_234" x="0.611267" y="0.875" width="94.25" height="94.25" filterUnits="userSpaceOnUse" color-interpolation-filters="sRGB">
<feFlood flood-opacity="0" result="BackgroundImageFix"/>
<feBlend mode="normal" in="SourceGraphic" in2="BackgroundImageFix" result="shape"/>
<feGaussianBlur stdDeviation="7.0625" result="effect1_foregroundBlur_103_234"/>
</filter>
</defs>
</svg>
