<svg width="95" height="96" viewBox="0 0 95 96" fill="none" xmlns="http://www.w3.org/2000/svg">
<g opacity="0.4" filter="url(#filter0_f_103_478)">
<circle cx="47.7363" cy="48" r="33" fill="#FF7474"/>
</g>
<circle cx="47.7363" cy="43" r="33" fill="#FF7474"/>
<path d="M57.649 32.3796C57.8254 32.6569 57.5233 32.9798 57.2029 32.907C56.5762 32.7203 55.8829 32.627 55.1762 32.627H50.8348C50.588 32.627 50.3557 32.5109 50.2074 32.3137L48.7095 30.3203C48.5217 30.0543 48.6993 29.667 49.0249 29.667H52.6962C54.7775 29.667 56.611 30.748 57.649 32.3796Z" fill="white"/>
<path d="M58.5896 35.7203C58.0162 35.307 57.3629 35.0003 56.6562 34.827C56.1762 34.6937 55.6829 34.627 55.1762 34.627H50.2162C49.4429 34.627 49.3896 34.5603 48.9762 34.0137L47.1096 31.5337C46.2429 30.3737 45.5629 29.667 43.3896 29.667H40.2962C37.0429 29.667 34.4029 32.307 34.4029 35.5603V50.4403C34.4029 53.6937 37.0429 56.3337 40.2962 56.3337H55.1762C58.4296 56.3337 61.0696 53.6937 61.0696 50.4403V40.5203C61.0696 38.5337 60.0962 36.787 58.5896 35.7203ZM50.9229 48.787H44.5362C44.0162 48.787 43.6162 48.3737 43.6162 47.8537C43.6162 47.347 44.0162 46.9203 44.5362 46.9203H50.9229C51.4429 46.9203 51.8562 47.347 51.8562 47.8537C51.8562 48.3737 51.4429 48.787 50.9229 48.787Z" fill="white"/>
<defs>
<filter id="filter0_f_103_478" x="0.611267" y="0.875" width="94.25" height="94.25" filterUnits="userSpaceOnUse" color-interpolation-filters="sRGB">
<feFlood flood-opacity="0" result="BackgroundImageFix"/>
<feBlend mode="normal" in="SourceGraphic" in2="BackgroundImageFix" result="shape"/>
<feGaussianBlur stdDeviation="7.0625" result="effect1_foregroundBlur_103_478"/>
</filter>
</defs>
</svg>
