<svg width="95" height="96" viewBox="0 0 95 96" fill="none" xmlns="http://www.w3.org/2000/svg">
<g opacity="0.4" filter="url(#filter0_f_103_357)">
<circle cx="47.7363" cy="48" r="33" fill="#3DD9B3"/>
</g>
<circle cx="47.7363" cy="43" r="33" fill="#3DD9B3"/>
<path d="M59.9363 35.2268C59.3896 34.9335 58.2429 34.6268 56.6829 35.7202L54.7229 37.1068C54.5763 32.9602 52.7763 31.3335 48.4029 31.3335H40.4029C35.8429 31.3335 34.0696 33.1068 34.0696 37.6668V48.3335C34.0696 51.4002 35.7363 54.6668 40.4029 54.6668H48.4029C52.7763 54.6668 54.5763 53.0402 54.7229 48.8935L56.6829 50.2802C57.5096 50.8668 58.2296 51.0535 58.8029 51.0535C59.2963 51.0535 59.6829 50.9068 59.9363 50.7735C60.4829 50.4935 61.4029 49.7335 61.4029 47.8268V38.1735C61.4029 36.2668 60.4829 35.5068 59.9363 35.2268ZM46.4029 42.1735C45.0296 42.1735 43.8963 41.0535 43.8963 39.6668C43.8963 38.2802 45.0296 37.1602 46.4029 37.1602C47.7763 37.1602 48.9096 38.2802 48.9096 39.6668C48.9096 41.0535 47.7763 42.1735 46.4029 42.1735Z" fill="white"/>
<defs>
<filter id="filter0_f_103_357" x="0.611267" y="0.875" width="94.25" height="94.25" filterUnits="userSpaceOnUse" color-interpolation-filters="sRGB">
<feFlood flood-opacity="0" result="BackgroundImageFix"/>
<feBlend mode="normal" in="SourceGraphic" in2="BackgroundImageFix" result="shape"/>
<feGaussianBlur stdDeviation="7.0625" result="effect1_foregroundBlur_103_357"/>
</filter>
</defs>
</svg>
