<svg width="95" height="96" viewBox="0 0 95 96" fill="none" xmlns="http://www.w3.org/2000/svg">
<g opacity="0.4" filter="url(#filter0_f_103_216)">
<circle cx="47.7363" cy="48" r="33" fill="#56B8FF"/>
</g>
<circle cx="47.7363" cy="43" r="33" fill="#56B8FF"/>
<path d="M40.0674 51.5082C39.0233 51.5063 38.0061 51.1831 37.1589 50.5841C36.3116 49.985 35.677 49.1403 35.3443 48.1687L35.2977 48.0181C35.1483 47.5593 35.0705 47.0808 35.067 46.5991V37.6737L31.8321 48.2747C31.6341 49.0291 31.7456 49.8295 32.1426 50.504C32.5396 51.1785 33.1903 51.673 33.9549 51.8813L54.5739 57.3022C54.8313 57.3677 55.0886 57.3991 55.342 57.3991C56.6701 57.3991 57.8835 56.5338 58.2235 55.2587L59.425 51.5082H40.0674ZM43.7344 37.7627C45.2052 37.7627 46.4012 36.5885 46.4012 35.1445C46.4012 33.7006 45.2052 32.5264 43.7344 32.5264C42.2636 32.5264 41.0675 33.7006 41.0675 35.1445C41.0675 36.5885 42.2636 37.7627 43.7344 37.7627Z" fill="white"/>
<path d="M60.4025 28.5991H40.4009C39.5171 28.6002 38.6698 28.9453 38.0448 29.5588C37.4199 30.1724 37.0683 31.0042 37.0673 31.8718V46.2718C37.0673 48.0758 38.5634 49.5446 40.4009 49.5446H60.4025C62.24 49.5446 63.7361 48.0758 63.7361 46.2718V31.8718C63.7361 30.0679 62.24 28.5991 60.4025 28.5991ZM40.4009 31.2173H60.4025C60.5793 31.2173 60.7489 31.2863 60.8739 31.409C60.999 31.5318 61.0692 31.6983 61.0692 31.8718V41.1651L56.8569 36.3398C56.6342 36.0886 56.3595 35.8869 56.0512 35.7481C55.7428 35.6093 55.4079 35.5365 55.0687 35.5347C54.7284 35.5364 54.3925 35.6113 54.0848 35.754C53.777 35.8967 53.5048 36.1038 53.2872 36.3607L48.3348 42.1966L46.7214 40.6166C46.2826 40.1865 45.6879 39.9449 45.0679 39.9449C44.4479 39.9449 43.8532 40.1865 43.4144 40.6166L39.7341 44.2284V31.8718C39.7341 31.6983 39.8044 31.5318 39.9294 31.409C40.0545 31.2863 40.224 31.2173 40.4009 31.2173Z" fill="white"/>
<defs>
<filter id="filter0_f_103_216" x="0.611267" y="0.875" width="94.25" height="94.25" filterUnits="userSpaceOnUse" color-interpolation-filters="sRGB">
<feFlood flood-opacity="0" result="BackgroundImageFix"/>
<feBlend mode="normal" in="SourceGraphic" in2="BackgroundImageFix" result="shape"/>
<feGaussianBlur stdDeviation="7.0625" result="effect1_foregroundBlur_103_216"/>
</filter>
</defs>
</svg>
