<svg width="24" height="25" viewBox="0 0 24 25" fill="none" xmlns="http://www.w3.org/2000/svg">
<path d="M23.4381 10.2154H22.4985V10.167H12V14.833H18.5925C17.6307 17.5491 15.0463 19.499 12 19.499C8.13482 19.499 5.00102 16.3652 5.00102 12.5C5.00102 8.63476 8.13482 5.50096 12 5.50096C13.7842 5.50096 15.4074 6.17403 16.6433 7.27345L19.9427 3.97401C17.8593 2.03237 15.0726 0.834961 12 0.834961C5.55802 0.834961 0.335022 6.05796 0.335022 12.5C0.335022 18.9419 5.55802 24.1649 12 24.1649C18.442 24.1649 23.665 18.9419 23.665 12.5C23.665 11.7178 23.5845 10.9543 23.4381 10.2154Z" fill="#FFC107"/>
<path d="M1.67999 7.07048L5.51253 9.88116C6.54955 7.3137 9.06102 5.50096 12 5.50096C13.7842 5.50096 15.4074 6.17403 16.6433 7.27345L19.9427 3.97401C17.8593 2.03237 15.0726 0.834961 12 0.834961C7.51949 0.834961 3.63388 3.36451 1.67999 7.07048Z" fill="#FF3D00"/>
<path d="M12 24.165C15.0131 24.165 17.7508 23.0119 19.8208 21.1368L16.2105 18.0817C15.0393 18.9688 13.5835 19.499 12 19.499C8.96593 19.499 6.38972 17.5644 5.41919 14.8645L1.61523 17.7953C3.54579 21.573 7.4664 24.165 12 24.165Z" fill="#4CAF50"/>
<path d="M23.4382 10.2154H22.4986V10.167H12.0001V14.833H18.5925C18.1306 16.1377 17.2913 17.2628 16.2088 18.0823L16.2105 18.0811L19.8209 21.1362C19.5654 21.3683 23.6651 18.3325 23.6651 12.5C23.6651 11.7179 23.5846 10.9544 23.4382 10.2154Z" fill="#1976D2"/>
</svg>
